<?xml version="1.0" encoding="UTF-8" standalone="no"?>
<!-- Created with Inkscape (http://www.inkscape.org/) -->

<svg
   width="90.815575mm"
   height="40.513294mm"
   viewBox="0 0 90.815574 40.513294"
   version="1.1"
   id="svg1"
   sodipodi:docname="BankTransfer.svg"
   inkscape:version="1.4 (86a8ad7, 2024-10-11)"
   xmlns:inkscape="http://www.inkscape.org/namespaces/inkscape"
   xmlns:sodipodi="http://sodipodi.sourceforge.net/DTD/sodipodi-0.dtd"
   xmlns="http://www.w3.org/2000/svg"
   xmlns:svg="http://www.w3.org/2000/svg">
  <sodipodi:namedview
     id="namedview1"
     pagecolor="#ffffff"
     bordercolor="#000000"
     borderopacity="0.25"
     inkscape:showpageshadow="2"
     inkscape:pageopacity="0.0"
     inkscape:pagecheckerboard="0"
     inkscape:deskcolor="#d1d1d1"
     inkscape:document-units="mm"
     inkscape:zoom="1.0467522"
     inkscape:cx="0"
     inkscape:cy="61.619166"
     inkscape:window-width="2560"
     inkscape:window-height="1377"
     inkscape:window-x="-8"
     inkscape:window-y="-8"
     inkscape:window-maximized="1"
     inkscape:current-layer="layer1" />
  <defs
     id="defs1">
    <clipPath
       clipPathUnits="userSpaceOnUse"
       id="clipPath87">
      <path
         id="path88"
         style="fill:#ff0000;fill-opacity:1;fill-rule:nonzero;stroke:none;stroke-width:0.264583"
         d="m 74.830981,56.962505 c 0.003,0.0015 0.006,0.0032 0.009,0.0047 0.0018,-0.0015 0.0034,-0.0033 0.0053,-0.0047 z m 6.794204,0 c 8.09e-4,0.0014 0.0016,0.0028 0.0024,0.0042 -6.74e-4,-0.0014 -0.0012,-0.0028 -0.0018,-0.0042 z m 4.135133,0 c 0.196376,0.25079 0.390979,0.502962 0.582684,0.757679 0.453725,0.604229 0.893455,1.219496 1.328088,1.839084 0.109421,0.157458 0.221641,0.312686 0.333865,0.467912 0.774207,1.07087 -0.249089,1.89767 -1.023186,0.826711 -0.115975,-0.16045 -0.231796,-0.321062 -0.344923,-0.483779 -0.174043,-0.248114 -0.349763,-0.494721 -0.526075,-0.740978 -0.08426,0.63666 -0.841892,0.786382 -1.297808,-0.109393 -0.0288,-0.05658 -0.0539,-0.11514 -0.08215,-0.172022 -0.04255,0.452107 -0.414757,0.676378 -0.788322,0.49881 -0.262529,0.259733 -0.761325,0.195386 -1.127979,-0.438129 -0.02938,-0.05076 -0.05893,-0.101426 -0.08452,-0.154486 -0.04033,-0.07722 -0.07949,-0.154862 -0.118485,-0.232704 -0.02467,0.240421 -0.152612,0.417127 -0.334391,0.487119 0.08821,0.111414 0.248569,0.316786 0.323069,0.410572 0.94242,1.186373 1.889384,2.369036 2.833902,3.553742 3.587772,4.404934 7.023095,8.930756 10.527541,13.401341 0.500912,0.639006 1.007362,1.273642 1.510555,1.9109 H 113.54799 V 56.962505 Z m -5.391076,1.561287 c -0.168688,0.612521 -0.726466,0.837024 -1.17037,0.586491 -0.151525,0.175673 -0.420418,0.302619 -0.808334,0.303406 -0.08418,1.71e-4 -0.168319,2.42e-4 -0.252504,5.56e-4 -0.178607,7.12e-4 -0.357236,0.0017 -0.535816,0.0053 -0.193911,0.0043 -0.388008,0.01115 -0.581631,0.02338 -0.03191,0.0021 -0.06371,0.0051 -0.09558,0.0075 0.218559,0.522455 -0.274863,1.061313 -1.119027,0.697833 -0.10257,-0.04416 -0.203957,-0.09101 -0.304375,-0.140012 -0.116493,0.135686 -0.217066,0.286997 -0.338341,0.418644 -0.18026,0.195678 -0.362787,0.314543 -0.532393,0.373273 -0.02596,0.124871 -0.05174,0.249648 -0.09163,0.371324 -0.0026,-0.01828 -0.0062,-0.07321 -0.0079,-0.05484 -0.01312,0.142536 0.01071,0.288971 0,0.431727 v 0.771874 0.6764 0.427551 c 0,0.107383 4e-6,0.214953 0,0.322334 -8e-6,0.109371 3.1e-5,0.218806 0,0.328179 -8e-6,0.02291 1.5e-5,0.04584 0,0.06875 0.05521,0.1747 0.08734,0.380274 0.08584,0.619058 -5.25e-4,0.0679 1.76e-4,0.135855 -0.0011,0.203755 -0.0045,0.618717 -0.01067,1.237485 -0.02501,1.856063 -0.02109,0.864409 -0.04501,1.729588 -0.121908,2.591195 -0.0029,0.02904 -0.0073,0.05785 -0.01053,0.08685 0.209256,0.03261 0.41728,0.0741 0.624022,0.121641 0.625181,0.143752 0.869097,0.547745 0.79938,0.879876 0.375893,0.369031 0.248761,0.902222 -0.248029,1.03993 0.261328,0.394238 -0.02631,0.982329 -0.862572,1.010146 -0.04398,0.0015 -0.08768,9.97e-4 -0.131387,-2.85e-4 0.04396,0.344653 0.0795,0.690257 0.125858,1.034641 0.06668,0.471782 0.126273,0.94483 0.193262,1.416542 0.05787,0.307303 0.123076,0.612905 0.188787,0.918569 0.0958,-0.01784 0.19833,-0.02939 0.314907,-0.02589 0.09853,0.003 0.197048,0.0057 0.295423,0.01253 0.263886,0.01807 0.526749,0.04842 0.788585,0.08768 0.61122,0.0886 1.220239,0.193405 1.832572,0.273621 0.705546,0.09639 1.411244,0.205836 2.12141,0.254138 0.640522,0.03365 1.281784,0.0526 1.921304,0.106053 0.770061,0.05652 1.539999,0.116292 2.311777,0.141125 0.817883,0.02903 1.636508,0.02205 2.454488,0.04955 0.714817,0.02061 1.429174,0.0492 2.143529,0.08267 0.379968,0.0095 0.76003,0.0048 1.14009,0.0058 h 0.436288 c 0.142935,7e-6 0.285983,-3e-6 0.428918,0 0.19499,7e-6 0.389797,-5e-5 0.58479,0 0.190443,6.4e-5 0.380916,2.85e-4 0.571362,5.7e-4 0.196636,2.85e-4 0.393424,4.28e-4 0.590055,0.0022 0.207102,0.002 0.414136,0.0044 0.621126,0.01224 0.224097,0.0089 0.448,0.0233 0.672206,0.02895 0.167996,0.0014 0.335837,-0.0042 0.503694,-0.01224 -3.37178,-4.31056 -6.68883,-8.666413 -10.145757,-12.910606 -0.945322,-1.185722 -1.892269,-2.369409 -2.835482,-3.556804 -0.36383,-0.458025 -0.979907,-1.248392 -1.530039,-1.949311 z m -7.499849,0.0022 v 0.368262 c 0.07673,-0.08052 0.155418,-0.15896 0.233547,-0.237992 -0.07814,-0.04278 -0.156032,-0.08618 -0.233547,-0.13027 z m 0,18.848724 v 1.410142 h 1.754897 c -0.09079,-0.0222 -0.18189,-0.04229 -0.273306,-0.06152 -0.542412,-0.114132 -0.874199,-0.36523 -1.026871,-0.643834 -0.02109,-0.0227 -0.04332,-0.04412 -0.06398,-0.06736 -0.16188,-0.19361 -0.286754,-0.410008 -0.390738,-0.637431 z" />
    </clipPath>
  </defs>
  <g
     inkscape:label="Layer 1"
     inkscape:groupmode="layer"
     id="layer1"
     transform="translate(-27.4804,-50.092188)">
    <rect
       style="fill:none;fill-opacity:0;stroke:#080808;stroke-width:2.09552;stroke-linecap:round;stroke-linejoin:round;stroke-dasharray:none;stroke-opacity:1;paint-order:stroke markers fill"
       id="rect4"
       width="39.678619"
       height="20.822338"
       x="73.369698"
       y="57.462505"
       rx="4"
       ry="4"
       clip-path="url(#clipPath87)"
       transform="matrix(1.9626414,0,0,1.8565021,-104.55801,-55.658822)" />
    <rect
       style="fill:#080808;fill-opacity:1;stroke:none;stroke-width:1.25504;stroke-linecap:round;stroke-linejoin:round;stroke-opacity:1;paint-order:stroke markers fill"
       id="rect3"
       width="38"
       height="5"
       x="36.740623"
       y="78.714417"
       rx="2.3910558"
       ry="3" />
    <rect
       style="fill:#080808;fill-opacity:1;stroke:none;stroke-width:1.1517;stroke-linecap:round;stroke-linejoin:round;stroke-opacity:1;paint-order:stroke markers fill"
       id="rect3-7"
       width="32"
       height="5"
       x="34.408775"
       y="57.569321"
       rx="2.0135205"
       ry="3" />
    <rect
       style="fill:#080808;fill-opacity:1;stroke:none;stroke-width:1.28764;stroke-linecap:round;stroke-linejoin:round;stroke-opacity:1;paint-order:stroke markers fill"
       id="rect3-1"
       width="40"
       height="5"
       x="27.4804"
       y="68.184532"
       rx="2.5169005"
       ry="3" />
    <text
       xml:space="preserve"
       style="font-style:italic;font-size:28.9516px;font-family:Roboto;-inkscape-font-specification:'Roboto, Italic';text-align:start;writing-mode:lr-tb;direction:ltr;text-anchor:start;fill:#186234;fill-opacity:1;stroke:none;stroke-width:3.5;stroke-linecap:round;stroke-linejoin:round;stroke-dasharray:none;stroke-opacity:1;paint-order:stroke markers fill"
       x="87.081657"
       y="73.383896"
       id="text32"
       transform="scale(0.92039021,1.0864957)"><tspan
         sodipodi:role="line"
         id="tspan32"
         style="font-style:italic;font-variant:normal;font-weight:normal;font-stretch:normal;font-family:Georgia;-inkscape-font-specification:'Georgia Italic';fill:#186234;fill-opacity:1;stroke:none;stroke-width:3.5;stroke-dasharray:none;stroke-opacity:1"
         x="87.081657"
         y="73.383896">$</tspan></text>
  </g>
</svg>
